<svg id="visual" viewBox="0 0 1920 1080" width="1920" height="1080" xmlns="http://www.w3.org/2000/svg" xmlns:xlink="http://www.w3.org/1999/xlink" version="1.1"><g stroke-width="1" stroke-linejoin="bevel"><path d="M857.3 527L1078.7 505L876.3 391Z" fill="#00101c" stroke="#00101c"></path><path d="M1078.7 505L1067.7 354L876.3 391Z" fill="#112e42" stroke="#112e42"></path><path d="M857.3 527L879.3 724L1078.7 505Z" fill="#297ea6" stroke="#297ea6"></path><path d="M876.3 391L675 518L857.3 527Z" fill="#00101c" stroke="#00101c"></path><path d="M857.3 527L675 518L879.3 724Z" fill="#112e42" stroke="#112e42"></path><path d="M1078.7 505L1240 368L1067.7 354Z" fill="#15384f" stroke="#15384f"></path><path d="M1278 523L1240 368L1078.7 505Z" fill="#15384f" stroke="#15384f"></path><path d="M879.3 724L1062.7 751L1078.7 505Z" fill="#15384f" stroke="#15384f"></path><path d="M1277 200L1028.7 164L1067.7 354Z" fill="#246688" stroke="#246688"></path><path d="M1067.7 354L1028.7 164L876.3 391Z" fill="#277297" stroke="#277297"></path><path d="M876.3 391L600 357L675 518Z" fill="#081a28" stroke="#081a28"></path><path d="M1028.7 164L843.3 179L876.3 391Z" fill="#277297" stroke="#277297"></path><path d="M1249 703L1278 523L1078.7 505Z" fill="#081a28" stroke="#081a28"></path><path d="M1062.7 751L1249 703L1078.7 505Z" fill="#205a7a" stroke="#205a7a"></path><path d="M843.3 179L600 357L876.3 391Z" fill="#205a7a" stroke="#205a7a"></path><path d="M1467.3 367L1277 200L1240 368Z" fill="#19435d" stroke="#19435d"></path><path d="M1240 368L1277 200L1067.7 354Z" fill="#081a28" stroke="#081a28"></path><path d="M611 759L849.3 875L879.3 724Z" fill="#15384f" stroke="#15384f"></path><path d="M879.3 724L849.3 875L1062.7 751Z" fill="#246688" stroke="#246688"></path><path d="M1062.7 751L1282 921L1249 703Z" fill="#246688" stroke="#246688"></path><path d="M849.3 875L1043.7 912L1062.7 751Z" fill="#277297" stroke="#277297"></path><path d="M659 0L620 183L843.3 179Z" fill="#19435d" stroke="#19435d"></path><path d="M843.3 179L620 183L600 357Z" fill="#297ea6" stroke="#297ea6"></path><path d="M675 518L611 759L879.3 724Z" fill="#277297" stroke="#277297"></path><path d="M462.7 681L611 759L675 518Z" fill="#0c2435" stroke="#0c2435"></path><path d="M1277 200L1064.7 0L1028.7 164Z" fill="#0c2435" stroke="#0c2435"></path><path d="M1028.7 164L846.3 0L843.3 179Z" fill="#00101c" stroke="#00101c"></path><path d="M1064.7 0L846.3 0L1028.7 164Z" fill="#205a7a" stroke="#205a7a"></path><path d="M1520.3 577L1467.3 367L1278 523Z" fill="#205a7a" stroke="#205a7a"></path><path d="M1278 523L1467.3 367L1240 368Z" fill="#297ea6" stroke="#297ea6"></path><path d="M1277 200L1285 0L1064.7 0Z" fill="#205a7a" stroke="#205a7a"></path><path d="M611 759L662 895L849.3 875Z" fill="#081a28" stroke="#081a28"></path><path d="M849.3 875L845.3 1080L1043.7 912Z" fill="#15384f" stroke="#15384f"></path><path d="M436.7 331L430.7 568L600 357Z" fill="#277297" stroke="#277297"></path><path d="M600 357L430.7 568L675 518Z" fill="#1d4e6b" stroke="#1d4e6b"></path><path d="M611 759L394.7 871L662 895Z" fill="#246688" stroke="#246688"></path><path d="M430.7 568L462.7 681L675 518Z" fill="#246688" stroke="#246688"></path><path d="M452.7 158L436.7 331L620 183Z" fill="#246688" stroke="#246688"></path><path d="M620 183L436.7 331L600 357Z" fill="#205a7a" stroke="#205a7a"></path><path d="M1043.7 912L1282 921L1062.7 751Z" fill="#297ea6" stroke="#297ea6"></path><path d="M1249 703L1488.3 680L1278 523Z" fill="#0c2435" stroke="#0c2435"></path><path d="M846.3 0L659 0L843.3 179Z" fill="#205a7a" stroke="#205a7a"></path><path d="M1282 921L1488.3 680L1249 703Z" fill="#00101c" stroke="#00101c"></path><path d="M1488.3 680L1520.3 577L1278 523Z" fill="#277297" stroke="#277297"></path><path d="M1476.3 156L1285 0L1277 200Z" fill="#0c2435" stroke="#0c2435"></path><path d="M659 0L452.7 158L620 183Z" fill="#0c2435" stroke="#0c2435"></path><path d="M1467.3 367L1476.3 156L1277 200Z" fill="#081a28" stroke="#081a28"></path><path d="M1525.3 0L1476.3 156L1699.7 144Z" fill="#205a7a" stroke="#205a7a"></path><path d="M662 895L845.3 1080L849.3 875Z" fill="#1d4e6b" stroke="#1d4e6b"></path><path d="M1043.7 912L1095.7 1080L1282 921Z" fill="#15384f" stroke="#15384f"></path><path d="M845.3 1080L1095.7 1080L1043.7 912Z" fill="#277297" stroke="#277297"></path><path d="M662 895L673 1080L845.3 1080Z" fill="#081a28" stroke="#081a28"></path><path d="M409.7 1080L673 1080L662 895Z" fill="#0c2435" stroke="#0c2435"></path><path d="M242.3 745L394.7 871L462.7 681Z" fill="#277297" stroke="#277297"></path><path d="M462.7 681L394.7 871L611 759Z" fill="#081a28" stroke="#081a28"></path><path d="M242.3 745L462.7 681L430.7 568Z" fill="#1d4e6b" stroke="#1d4e6b"></path><path d="M1282 921L1526.3 925L1488.3 680Z" fill="#0c2435" stroke="#0c2435"></path><path d="M1095.7 1080L1316 1080L1282 921Z" fill="#205a7a" stroke="#205a7a"></path><path d="M1316 1080L1526.3 925L1282 921Z" fill="#0c2435" stroke="#0c2435"></path><path d="M1721.7 739L1697.7 501L1520.3 577Z" fill="#246688" stroke="#246688"></path><path d="M659 0L417.7 0L452.7 158Z" fill="#00101c" stroke="#00101c"></path><path d="M175.3 370L232.3 500L436.7 331Z" fill="#205a7a" stroke="#205a7a"></path><path d="M436.7 331L232.3 500L430.7 568Z" fill="#081a28" stroke="#081a28"></path><path d="M175.3 370L436.7 331L180.3 213Z" fill="#081a28" stroke="#081a28"></path><path d="M1687.7 330L1476.3 156L1467.3 367Z" fill="#15384f" stroke="#15384f"></path><path d="M1476.3 156L1525.3 0L1285 0Z" fill="#0c2435" stroke="#0c2435"></path><path d="M1697.7 501L1467.3 367L1520.3 577Z" fill="#15384f" stroke="#15384f"></path><path d="M1721.7 739L1520.3 577L1488.3 680Z" fill="#277297" stroke="#277297"></path><path d="M1697.7 501L1687.7 330L1467.3 367Z" fill="#19435d" stroke="#19435d"></path><path d="M232.3 500L242.3 745L430.7 568Z" fill="#00101c" stroke="#00101c"></path><path d="M180.3 213L436.7 331L452.7 158Z" fill="#081a28" stroke="#081a28"></path><path d="M232.3 500L0 685L242.3 745Z" fill="#205a7a" stroke="#205a7a"></path><path d="M1526.3 925L1721.7 739L1488.3 680Z" fill="#205a7a" stroke="#205a7a"></path><path d="M1920 188L1699.7 144L1687.7 330Z" fill="#081a28" stroke="#081a28"></path><path d="M1687.7 330L1699.7 144L1476.3 156Z" fill="#00101c" stroke="#00101c"></path><path d="M1920 379L1687.7 330L1697.7 501Z" fill="#277297" stroke="#277297"></path><path d="M394.7 871L409.7 1080L662 895Z" fill="#297ea6" stroke="#297ea6"></path><path d="M215.3 889L409.7 1080L394.7 871Z" fill="#297ea6" stroke="#297ea6"></path><path d="M200.3 0L180.3 213L452.7 158Z" fill="#081a28" stroke="#081a28"></path><path d="M1526.3 925L1682.7 906L1721.7 739Z" fill="#15384f" stroke="#15384f"></path><path d="M1316 1080L1531.3 1080L1526.3 925Z" fill="#205a7a" stroke="#205a7a"></path><path d="M1675.7 1080L1682.7 906L1526.3 925Z" fill="#00101c" stroke="#00101c"></path><path d="M0 901L215.3 889L242.3 745Z" fill="#277297" stroke="#277297"></path><path d="M242.3 745L215.3 889L394.7 871Z" fill="#00101c" stroke="#00101c"></path><path d="M1699.7 144L1686.7 0L1525.3 0Z" fill="#0c2435" stroke="#0c2435"></path><path d="M417.7 0L200.3 0L452.7 158Z" fill="#205a7a" stroke="#205a7a"></path><path d="M1531.3 1080L1675.7 1080L1526.3 925Z" fill="#205a7a" stroke="#205a7a"></path><path d="M1920 756L1920 534L1721.7 739Z" fill="#081a28" stroke="#081a28"></path><path d="M1920 756L1721.7 739L1920 914Z" fill="#081a28" stroke="#081a28"></path><path d="M1721.7 739L1920 534L1697.7 501Z" fill="#246688" stroke="#246688"></path><path d="M1699.7 144L1920 0L1686.7 0Z" fill="#0c2435" stroke="#0c2435"></path><path d="M1920 534L1920 379L1697.7 501Z" fill="#277297" stroke="#277297"></path><path d="M215.3 889L218.3 1080L409.7 1080Z" fill="#1d4e6b" stroke="#1d4e6b"></path><path d="M0 901L218.3 1080L215.3 889Z" fill="#297ea6" stroke="#297ea6"></path><path d="M180.3 213L0 398L175.3 370Z" fill="#19435d" stroke="#19435d"></path><path d="M175.3 370L0 398L232.3 500Z" fill="#277297" stroke="#277297"></path><path d="M0 140L0 398L180.3 213Z" fill="#205a7a" stroke="#205a7a"></path><path d="M0 398L0 562L232.3 500Z" fill="#081a28" stroke="#081a28"></path><path d="M0 562L0 685L232.3 500Z" fill="#19435d" stroke="#19435d"></path><path d="M1920 914L1721.7 739L1682.7 906Z" fill="#297ea6" stroke="#297ea6"></path><path d="M1920 379L1920 188L1687.7 330Z" fill="#277297" stroke="#277297"></path><path d="M200.3 0L0 140L180.3 213Z" fill="#00101c" stroke="#00101c"></path><path d="M1920 1080L1920 914L1682.7 906Z" fill="#205a7a" stroke="#205a7a"></path><path d="M0 685L0 901L242.3 745Z" fill="#277297" stroke="#277297"></path><path d="M1920 188L1920 0L1699.7 144Z" fill="#00101c" stroke="#00101c"></path><path d="M200.3 0L0 0L0 140Z" fill="#277297" stroke="#277297"></path><path d="M1675.7 1080L1920 1080L1682.7 906Z" fill="#00101c" stroke="#00101c"></path><path d="M0 901L0 1080L218.3 1080Z" fill="#205a7a" stroke="#205a7a"></path></g></svg>